<?xml version="1.0" encoding="utf-8"?>
<!-- Generator: Adobe Illustrator 27.5.0, SVG Export Plug-In . SVG Version: 6.00 Build 0)  -->
<svg version="1.1" xmlns="http://www.w3.org/2000/svg" xmlns:xlink="http://www.w3.org/1999/xlink" x="0px" y="0px"
	 viewBox="0 0 750 500" style="enable-background:new 0 0 750 500;" xml:space="preserve">
<g id="BACKGROUND">
	<linearGradient id="SVGID_1_" gradientUnits="userSpaceOnUse" x1="373.8572" y1="327.8353" x2="379.0808" y2="-27.3705">
		<stop  offset="0" style="stop-color:#615886"/>
		<stop  offset="0.1552" style="stop-color:#524A73"/>
		<stop  offset="0.5955" style="stop-color:#2B2740"/>
		<stop  offset="0.8121" style="stop-color:#1C192C"/>
	</linearGradient>
	<rect x="0.002" y="0.011" style="fill:url(#SVGID_1_);" width="750" height="500"/>
</g>
<g id="OBJECTS">
	<g>
		<g>
			<g style="opacity:0.5;">
				<path style="fill:#3E3056;" d="M42.5,356.997c0,0,8-37,23-50s32-5,44-12s7-45,7-45h15v-37c0,0,4-2,14,2s4,48,9,55s28,3,39,6
					s13,17,25,21s33,1,48,0c15-1,32,27,32,27L42.5,356.997z"/>
				<path style="fill:#3E3056;" d="M487.997,331.997c0,0,9-36,14-35s22-2,33-4s10.333-48.667,14.333-48.667s18,8,23.333,8
					c5.333,0,5.333-20,8-20c2.667,0,4,4,8.667,8.667c4.667,4.667-5.333,35.333,4,37.333s20.667-5.333,23.333,1.333
					c2.667,6.667,2,26.667,15.333,24.667c13.333-2,12.667,2,24.667-4s1.333-20.667,8.667-22.667s18-3.333,18-1.333
					s7.333,20.667,10.667,27.333c3.333,6.667,11.333-4,15.333-4s8.667,4.667,12.667,8.667s25.333,21.333,25.333,21.333
					S549.997,363.664,487.997,331.997z"/>
			</g>
			<g>
				<path style="fill:#48385D;" d="M-0.003,323.747c0,0,43.607,1.903,91.605,12.193s281.986-48.024,367.482-29.158
					c85.496,18.867,167.992,25.727,203.99,24.012c35.998-1.715,86.924-20.681,86.924-20.681l0.021,130.358L-0.003,464.574V323.747z"
					/>
				<g>
					<g>
						<g>
							<path style="fill:#48385D;" d="M394.854,303.796c0,0-2.059-2.262-2.175-3.754c-0.116-1.492,0.146-5.544,0.301-6.096
								s3.693-5.394,3.665-5.983c0,0,1.128,2.023,5.047,2.858c3.92,0.835,7.054,0.176,7.054,0.176s1.586,3.294,2.4,5.4
								c0.815,2.106,1.398,5.289,1.534,6.236c0.136,0.947,0.101,1.175,0.466,1.203c0.364,0.028,2.12-0.282,2.12-0.282
								s-1.647-3.144-1.683-3.914s0.137-3.819,0.053-4.632c-0.084-0.813,0.631-5.839,0.896-6.941c0,0,1.183,1.986,5.974,1.078
								c4.79-0.908,4.56-4.54,4.856-6.697c0.354-2.581,0.916-2.222,1.996-2.409c1.08-0.187,2.736-1.151,2.83-2.04
								c0.094-0.889-3.001-1.56-3.36-1.951s-0.952-1.418-1.261-1.472s-3.938,0.221-4.662,0.732c-0.725,0.511-1.35,5.986-1.809,6.349
								c-0.459,0.362-5.055-3.005-6.381-5.121c-1.326-2.116-2.582-4.688-3.77-4.859c-1.188-0.171-3.752,1.267-3.925,2.41
								c-0.173,1.143-0.374,2.65-1.738,2.578c-1.365-0.071-2.807-3.679-4.411-4.012s-3.994,1.914-4.406,3.749
								s-0.712,3.165-1.991,3.952s-2.608,3.391-2.353,4.922c0.254,1.531,1.122,6.437,0.956,7.715
								c-0.166,1.279-0.783,2.624-0.822,3.715c-0.039,1.091,1.789,5.18,1.795,6.269s0.058,1.223,0.877,1.275
								c0.819,0.052,2.1,0.264,2.07-0.37"/>
							<path style="fill:#48385D;" d="M390.894,289.189c0,0-0.46,2.745-1.566,4.295c-1.106,1.55-1.674,2.031-1.57,2.298
								c0.103,0.267,0.696,3.189,0.758,5.455s-0.678,2.937-0.121,3.183c0.556,0.246,1.971,0.406,1.992-0.094
								s-0.566-4.285-0.516-5.149c0.05-0.865,2.22-4.87,2.22-4.87l-0.335-5.158L390.894,289.189z"/>
							<path style="fill:#48385D;" d="M408.795,290.564c0,0,0.183,2.896,0.152,4.168s0.851,4.543,0.725,5.729
								c-0.125,1.186-0.652,3.48-0.24,3.551c0.412,0.071,2.32,0.117,2.307-0.155c-0.013-0.272-1.052-3.036-1.084-3.715
								c-0.032-0.679,1.332-6.371,1.332-6.371L408.795,290.564z"/>
						</g>
					</g>
					<g>
						<g>
							<path style="fill:#48385D;" d="M341.272,308.853c0,0-1.932-1.732-2.158-2.981s-0.353-4.691-0.27-5.17
								s2.653-4.869,2.579-5.364c0,0,1.125,1.61,4.505,1.978c3.379,0.368,5.968-0.457,5.968-0.457s1.621,2.644,2.489,4.351
								c0.868,1.707,1.634,4.343,1.83,5.13s0.186,0.983,0.496,0.975c0.31-0.008,1.764-0.42,1.764-0.42s-1.66-2.512-1.757-3.158
								c-0.097-0.646-0.213-3.234-0.353-3.913c-0.141-0.679,0.031-4.982,0.16-5.934c0,0,1.169,1.574,5.134,0.397
								c3.964-1.178,3.458-4.223,3.523-6.069c0.077-2.208,0.582-1.954,1.477-2.205s2.21-1.206,2.213-1.965
								c0.003-0.759-2.667-1.058-3.003-1.358s-0.925-1.115-1.191-1.134c-0.265-0.019-3.304,0.525-3.872,1.018
								c-0.568,0.493-0.625,5.168-0.981,5.513c-0.357,0.345-4.524-2.102-5.825-3.773s-2.582-3.734-3.599-3.776
								s-3.057,1.392-3.105,2.371c-0.048,0.979-0.088,2.268-1.245,2.325s-2.685-2.864-4.067-3.006
								c-1.382-0.143-3.206,1.958-3.396,3.542c-0.19,1.584-0.329,2.732-1.341,3.506c-1.012,0.774-1.909,3.086-1.563,4.356
								c0.346,1.27,1.5,5.335,1.469,6.429c-0.03,1.093-0.436,2.282-0.375,3.206c0.061,0.924,1.954,4.217,2.053,5.136
								s0.154,1.027,0.85,1s1.795,0.042,1.715-0.49"/>
							<path style="fill:#48385D;" d="M336.675,296.866c0,0-0.152,2.356-0.953,3.759s-1.238,1.858-1.128,2.074
								c0.11,0.217,0.861,2.632,1.108,4.539s-0.32,2.536,0.171,2.696s1.698,0.173,1.673-0.251c-0.025-0.424-0.846-3.567-0.878-4.301
								c-0.032-0.734,1.455-4.301,1.455-4.301l-0.726-4.324L336.675,296.866z"/>
							<path style="fill:#48385D;" d="M351.899,296.489c0,0,0.403,2.428,0.487,3.504c0.084,1.076,1.108,3.761,1.104,4.772
								s-0.251,2.993,0.103,3.017c0.354,0.025,1.968-0.101,1.934-0.329c-0.034-0.228-1.148-2.472-1.234-3.042
								s0.576-5.491,0.576-5.491L351.899,296.489z"/>
						</g>
					</g>
				</g>
			</g>
			<g>
				<path style="fill:#302140;" d="M-0.003,391.872c0,0,67-27.875,173-29.875s187,43,241,53s225.333-61.333,270-62.667
					c44.667-1.333,66,4.51,66,4.51l0.005,143.17h-750L-0.003,391.872z"/>
				<g>
					<g>
						<g>
							<g>
								<g>
									<path style="fill:#302140;" d="M249.684,377.597c0,0-5.337-52.155-3.227-68.509c2.11-16.353,6.33-1.583,7.385,5.275
										c1.055,6.858,2.638,68.05,2.638,68.05L249.684,377.597z"/>
								</g>
								<path style="fill:#302140;" d="M252.787,356.829c0,0-9.759-2.374-11.078-6.858c-1.319-4.484,0-28.222-2.374-31.388
									c-2.374-3.165-4.748-1.846-5.011,4.22c-0.264,6.066-0.264,27.431,2.901,31.915c3.165,4.484,15.034,7.122,15.034,7.122
									L252.787,356.829z"/>
								<path style="fill:#302140;" d="M253.578,352.345c0,0,3.429,1.055,5.275-1.319c1.846-2.374-1.055-22.42,1.846-23.211
									c2.901-0.791,5.011,0.528,5.539,2.11c0.528,1.583,0.528,20.31-0.264,23.475s-13.188,5.011-13.188,3.429
									C252.787,355.247,253.578,352.345,253.578,352.345z"/>
							</g>
						</g>
						<g>
							<g>
								<g>
									<path style="fill:#302140;" d="M527.006,407.778c0,0,2.894-58.706-0.892-59.889s-4.103,2.238-4.797,8.4
										c-0.694,6.162-1.506,46.382-1.232,49.547C520.359,409.002,527.006,407.778,527.006,407.778z"/>
								</g>
								<path style="fill:#302140;" d="M525.599,388.07c0,0,7.292,1.772,9.91-2.73c2.617-4.502,5.049-46.066,1.736-45.615
									s-3.307,2.984-4.601,10.301c-1.295,7.317,1.868,31.304-2.54,32.364S525.395,383.491,525.599,388.07z"/>
								<g>
									<path style="fill:#302140;" d="M523.995,363.578c0,0-5.561-0.417-6.967-6.026c-1.407-5.609,5.891-24.116,2.795-24.423
										c-3.096-0.307-4.93-0.22-5.365,1.843c-0.435,2.064-3.61,18.559-3.829,23.11c-0.22,4.551,9.362,8.864,12.132,8.959
										C525.531,367.138,523.995,363.578,523.995,363.578z"/>
								</g>
								<path style="fill:#302140;" d="M535.761,374.22c0,0,3.648-0.4,5.326-2.296s0.922-24.788,2.963-26.02
									s4.695-2.493,5.165,2.933c0.47,5.426-0.577,25.226-1.78,25.51c-1.203,0.284-9.883,6.371-11.894,4.423
									C533.531,376.823,535.761,374.22,535.761,374.22z"/>
							</g>
						</g>
					</g>
					<g>
						<g>
							<g>
								<path style="fill:#302140;" d="M676.894,353.866c0,0-3.073-4.497-1.648-13.548c1.425-9.051,1.76-12.236,2.347-12.319
									c0.587-0.084,1.006,9.805,1.425,14.666C679.436,347.524,676.95,353.67,676.894,353.866z"/>
								<path style="fill:#302140;" d="M676.503,354.564c0,0-3.771-1.76-6.034-7.71c-2.263-5.95-1.927-9.638-1.089-9.805
									c0.838-0.168,6.369,13.493,7.375,14.917S676.503,354.564,676.503,354.564z"/>
								<path style="fill:#302140;" d="M676.62,356.649c0,0-4.142-0.403-8.258-5.259c-4.116-4.856-5.028-8.445-4.294-8.882
									c0.734-0.437,10.501,10.6,11.923,11.608C677.414,355.124,676.62,356.649,676.62,356.649z"/>
								<path style="fill:#302140;" d="M676.252,355.416c0,0,4.401-2.444,6.664-8.394c2.263-5.95,1.927-9.638,1.089-9.805
									c-0.838-0.168-6.369,13.493-7.375,14.917C675.625,353.558,676.252,355.416,676.252,355.416z"/>
								<path style="fill:#302140;" d="M676.751,356.649c0,0,4.142-0.403,8.258-5.259c4.116-4.856,5.028-8.445,4.294-8.882
									c-0.734-0.437-10.501,10.6-11.923,11.608C675.957,355.124,676.751,356.649,676.751,356.649z"/>
							</g>
						</g>
						<g>
							<g>
								<path style="fill:#302140;" d="M477.561,411.199c0,0-3.073-4.498-1.648-13.548s1.76-12.235,2.347-12.319
									s1.006,9.805,1.425,14.666C480.103,404.858,477.617,411.003,477.561,411.199z"/>
								<path style="fill:#302140;" d="M477.17,411.897c0,0-3.771-1.76-6.034-7.71s-1.927-9.638-1.089-9.805
									s6.369,13.493,7.375,14.917C478.427,410.724,477.17,411.897,477.17,411.897z"/>
								<path style="fill:#302140;" d="M477.287,413.982c0,0-4.142-0.403-8.258-5.259c-4.116-4.856-5.028-8.445-4.294-8.882
									s10.501,10.6,11.923,11.608S477.287,413.982,477.287,413.982z"/>
								<path style="fill:#302140;" d="M476.918,412.749c0,0,4.401-2.444,6.664-8.394s1.927-9.638,1.089-9.805
									s-6.369,13.493-7.375,14.917C476.291,410.892,476.918,412.749,476.918,412.749z"/>
								<path style="fill:#302140;" d="M477.418,413.982c0,0,4.142-0.403,8.258-5.259c4.116-4.856,5.028-8.445,4.294-8.882
									c-0.734-0.437-10.501,10.6-11.923,11.608C476.623,412.457,477.418,413.982,477.418,413.982z"/>
							</g>
						</g>
						<g>
							<g>
								<path style="fill:#302140;" d="M52.561,379.199c0,0-3.073-4.498-1.648-13.548s1.76-12.235,2.347-12.319
									s1.006,9.805,1.425,14.666C55.103,372.858,52.617,379.003,52.561,379.199z"/>
								<path style="fill:#302140;" d="M52.17,379.897c0,0-3.771-1.76-6.034-7.71c-2.263-5.95-1.928-9.638-1.089-9.805
									s6.369,13.493,7.375,14.917S52.17,379.897,52.17,379.897z"/>
								<path style="fill:#302140;" d="M52.287,381.982c0,0-4.142-0.403-8.258-5.259c-4.116-4.856-5.028-8.445-4.294-8.882
									c0.734-0.437,10.501,10.6,11.923,11.608S52.287,381.982,52.287,381.982z"/>
								<path style="fill:#302140;" d="M51.918,380.749c0,0,4.401-2.444,6.664-8.394c2.263-5.95,1.928-9.638,1.089-9.805
									s-6.369,13.493-7.375,14.917S51.918,380.749,51.918,380.749z"/>
								<path style="fill:#302140;" d="M52.418,381.982c0,0,4.142-0.403,8.258-5.259c4.116-4.856,5.028-8.445,4.294-8.882
									s-10.501,10.6-11.923,11.608S52.418,381.982,52.418,381.982z"/>
							</g>
						</g>
					</g>
				</g>
			</g>
			<g>
				<g>
					<path style="fill:#1C192C;" d="M-0.003,464.574c0,0,211.599-19.496,250.597-40.495
						c38.998-20.999,142.493,34.498,233.988,44.998c91.495,10.499,151.832,30.921,151.832,30.921L0.002,500.011L-0.003,464.574z"/>
					<path style="fill:#1C192C;" d="M418.997,500c0,0,149-50.406,175-47.681c26,2.725,100.333,10.354,120.333,1.635
						c20-8.719,35.688-10.456,35.688-10.456l-0.016,56.514L418.997,500z"/>
				</g>
				<g>
					<g>
						<g>
							<path style="fill:#1C192C;" d="M546.491,494.826c0,0-14.018-11.545-10.72-33.809c3.298-22.264,12.369-24.738,16.905-23.501
								c4.535,1.237,12.781,13.606,14.018,22.264C567.931,468.439,573.703,498.537,546.491,494.826z"/>
							<g>
								<path style="fill:#1C192C;" d="M543.42,437.535c-2.611-2.381-12.071-5.593-9.474,2.501
									c2.598,8.094,14.717,3.295,14.717,3.295S546.031,439.915,543.42,437.535z"/>
								<path style="fill:#1C192C;" d="M554.254,434.962c-2.232,2.676-4.352,6.298-4.352,6.298s12.387,1.996,13.875-5.875
									C565.265,427.513,556.486,432.285,554.254,434.962z"/>
								<path style="fill:#1C192C;" d="M557.536,426.828c-3.977-5.267-6.776,4.157-6.566,7.313c0.21,3.156,1.091,6.715,1.091,6.715
									S561.513,432.095,557.536,426.828z"/>
								<path style="fill:#1C192C;" d="M538.331,429.984c1.784-6.354,7.825,1.402,8.779,4.418c0.954,3.016,1.431,6.651,1.431,6.651
									S536.546,436.338,538.331,429.984z"/>
								<path style="fill:#1C192C;" d="M546.894,426.531c4.868-4.456,5.907,5.319,5.126,8.385c-0.781,3.065-2.293,6.405-2.293,6.405
									S542.025,430.987,546.894,426.531z"/>
							</g>
						</g>
						<g>
							<path style="fill:#1C192C;" d="M51.349,487.993c0,0-14.018-11.545-10.72-33.809c3.298-22.264,12.369-24.738,16.904-23.501
								c4.535,1.237,12.781,13.606,14.018,22.264C72.789,461.606,78.561,491.704,51.349,487.993z"/>
							<g>
								<path style="fill:#1C192C;" d="M48.278,430.702c-2.611-2.381-12.071-5.593-9.474,2.501
									c2.597,8.094,14.717,3.295,14.717,3.295S50.889,433.082,48.278,430.702z"/>
								<path style="fill:#1C192C;" d="M59.112,428.128c-2.232,2.676-4.352,6.298-4.352,6.298s12.387,1.996,13.875-5.875
									C70.122,420.68,61.344,425.452,59.112,428.128z"/>
								<path style="fill:#1C192C;" d="M62.394,419.995c-3.977-5.267-6.776,4.157-6.566,7.313c0.21,3.156,1.091,6.715,1.091,6.715
									S66.371,425.262,62.394,419.995z"/>
								<path style="fill:#1C192C;" d="M43.189,423.151c1.784-6.354,7.825,1.402,8.779,4.418c0.954,3.016,1.431,6.651,1.431,6.651
									S41.404,429.505,43.189,423.151z"/>
								<path style="fill:#1C192C;" d="M51.751,419.697c4.868-4.456,5.907,5.319,5.126,8.385c-0.781,3.065-2.293,6.405-2.293,6.405
									S46.883,424.154,51.751,419.697z"/>
							</g>
						</g>
						<g>
							<path style="fill:#1C192C;" d="M702.443,477.444c0,0-10.636-8.759-8.133-25.651c2.503-16.892,9.384-18.769,12.825-17.83
								c3.441,0.938,9.697,10.323,10.636,16.892C718.71,457.424,723.089,480.26,702.443,477.444z"/>
							<g>
								<path style="fill:#1C192C;" d="M700.113,433.977c-1.981-1.806-9.158-4.243-7.188,1.898c1.971,6.141,11.166,2.5,11.166,2.5
									S702.094,435.784,700.113,433.977z"/>
								<path style="fill:#1C192C;" d="M708.333,432.025c-1.693,2.031-3.302,4.778-3.302,4.778s9.398,1.514,10.527-4.458
									C716.687,426.374,710.027,429.995,708.333,432.025z"/>
								<path style="fill:#1C192C;" d="M710.824,425.854c-3.017-3.996-5.141,3.154-4.981,5.548c0.16,2.395,0.827,5.095,0.827,5.095
									S713.841,429.85,710.824,425.854z"/>
								<path style="fill:#1C192C;" d="M696.252,428.249c1.354-4.821,5.937,1.064,6.66,3.352s1.086,5.046,1.086,5.046
									S694.898,433.07,696.252,428.249z"/>
								<path style="fill:#1C192C;" d="M702.749,425.629c3.694-3.381,4.482,4.036,3.889,6.361c-0.592,2.326-1.74,4.859-1.74,4.859
									S699.055,429.009,702.749,425.629z"/>
							</g>
						</g>
					</g>
					<g>
						<g>
							<path style="fill:#1C192C;" d="M624.075,468.077c0,0-6.745-65.913-4.078-86.579c2.667-20.667,8-2,9.333,6.667
								s3.333,86,3.333,86L624.075,468.077z"/>
							<path style="fill:#1C192C;" d="M627.997,441.831c0,0-12.333-3-14-8.667c-1.667-5.667,0-35.667-3-39.667s-6-2.333-6.333,5.333
								c-0.333,7.667-0.333,34.667,3.667,40.333s19,9,19,9L627.997,441.831z"/>
							<path style="fill:#1C192C;" d="M628.997,436.164c0,0,4.333,1.333,6.667-1.667c2.333-3-1.333-28.333,2.333-29.333
								c3.667-1,6.333,0.667,7,2.667c0.667,2,0.667,25.667-0.333,29.667s-16.667,6.333-16.667,4.333
								S628.997,436.164,628.997,436.164z"/>
						</g>
						<g>
							<path style="fill:#1C192C;" d="M373.547,464.504c0,0-7.686-123.276-3.216-125.892c4.471-2.616,10.417,13.385,10.601,31.373
								s6.689,88.593,4.172,93.759C382.587,468.909,373.547,464.504,373.547,464.504z"/>
							<path style="fill:#1C192C;" d="M340.794,372.19c0,0,1.157,21.981,5.013,26.995c3.856,5.013,31.237,10.798,30.851,7.327
								c-0.386-3.471-0.386-9.641-0.386-9.641s-16.872,2.314-21.499-6.556c-4.628-8.87-4.724-20.053-6.652-24.681
								C346.131,360.859,341.565,369.876,340.794,372.19z"/>
							<path style="fill:#1C192C;" d="M375.501,378.427c0,0,17.34,1.309,18.322-4.908c0.982-6.216-3.926-22.575-1.636-24.211
								s7.198,1.309,8.507,2.945s4.253,28.464,1.309,30.427s-25.52,8.507-25.52,6.543S375.501,378.427,375.501,378.427z"/>
							<path style="fill:#1C192C;" d="M382.199,415.58c0,0,14.761,4.307,16.748-0.891s0.737-20.247,3.017-21.243
								c2.281-0.996,5.987,2.45,6.82,4.105c0.833,1.655-1.532,25.402-4.438,26.561s-23.633,2.687-23.274,0.988
								C381.431,423.401,382.199,415.58,382.199,415.58z"/>
						</g>
						<g>
							<path style="fill:#1C192C;" d="M152.746,476.02c0,0-4.5-123.419,1.387-125.906c5.886-2.486,6.38,4.704,7.459,17.659
								c1.079,12.955,2.342,97.509,1.916,104.164C163.081,478.591,152.746,476.02,152.746,476.02z"/>
							<path style="fill:#1C192C;" d="M154.933,434.586c0,0-11.339,3.725-15.409-5.74c-4.07-9.465-7.852-96.845-2.699-95.897
								c5.153,0.948,5.142,6.273,7.155,21.655c2.013,15.383-2.905,65.81,3.949,68.039
								C154.782,424.873,155.251,424.959,154.933,434.586z"/>
							<path style="fill:#1C192C;" d="M157.428,383.097c0,0,8.647-0.878,10.834-12.669c2.187-11.791-9.16-50.698-4.346-51.344
								c4.814-0.646,7.666-0.463,8.342,3.875c0.676,4.339,5.613,39.017,5.954,48.584c0.341,9.567-14.557,18.634-18.865,18.836
								C155.039,390.58,157.428,383.097,157.428,383.097z"/>
							<path style="fill:#1C192C;" d="M139.131,405.469c0,0-5.673-0.841-8.281-4.826c-2.608-3.985-1.433-52.112-4.608-54.702
								c-3.175-2.59-7.3-5.24-8.031,6.167c-0.731,11.407,0.897,53.032,2.768,53.63s15.368,13.393,18.494,9.298
								C142.599,410.941,139.131,405.469,139.131,405.469z"/>
						</g>
					</g>
					<g>
						<g>
							<g>
								<path style="fill:#1C192C;" d="M273.747,420.497c0,0-4.583-6.708-2.458-20.208s2.625-18.25,3.5-18.375
									s1.5,14.625,2.125,21.875S273.83,420.206,273.747,420.497z"/>
								<path style="fill:#1C192C;" d="M273.163,421.539c0,0-5.625-2.625-9-11.5s-2.875-14.375-1.625-14.625s9.5,20.125,11,22.25
									S273.163,421.539,273.163,421.539z"/>
								<path style="fill:#1C192C;" d="M273.338,424.649c0,0-6.178-0.601-12.317-7.844s-7.5-12.596-6.405-13.248
									s15.662,15.81,17.785,17.314C274.522,422.374,273.338,424.649,273.338,424.649z"/>
								<path style="fill:#1C192C;" d="M272.788,422.81c0,0,6.565-3.646,9.94-12.521s2.875-14.375,1.625-14.625
									s-9.5,20.125-11,22.25S272.788,422.81,272.788,422.81z"/>
								<path style="fill:#1C192C;" d="M273.533,424.649c0,0,6.178-0.601,12.317-7.844c6.139-7.243,7.5-12.596,6.405-13.248
									c-1.095-0.652-15.662,15.81-17.785,17.314C272.348,422.374,273.533,424.649,273.533,424.649z"/>
							</g>
						</g>
						<g>
							<g>
								<path style="fill:#1C192C;" d="M504.747,468.497c0,0-4.583-6.708-2.458-20.208s2.625-18.25,3.5-18.375
									s1.5,14.625,2.125,21.875S504.83,468.206,504.747,468.497z"/>
								<path style="fill:#1C192C;" d="M504.163,469.539c0,0-5.625-2.625-9-11.5s-2.875-14.375-1.625-14.625s9.5,20.125,11,22.25
									S504.163,469.539,504.163,469.539z"/>
								<path style="fill:#1C192C;" d="M504.338,472.649c0,0-6.178-0.601-12.317-7.844s-7.5-12.596-6.405-13.248
									c1.095-0.652,15.662,15.81,17.785,17.314C505.522,470.374,504.338,472.649,504.338,472.649z"/>
								<path style="fill:#1C192C;" d="M503.788,470.81c0,0,6.565-3.646,9.94-12.521c3.375-8.875,2.875-14.375,1.625-14.625
									s-9.5,20.125-11,22.25S503.788,470.81,503.788,470.81z"/>
								<path style="fill:#1C192C;" d="M504.533,472.649c0,0,6.178-0.601,12.317-7.844c6.139-7.243,7.5-12.596,6.405-13.248
									c-1.095-0.652-15.662,15.81-17.785,17.314C503.348,470.374,504.533,472.649,504.533,472.649z"/>
							</g>
						</g>
						<g>
							<g>
								<path style="fill:#1C192C;" d="M95.747,455.497c0,0-4.583-6.708-2.458-20.208s2.625-18.25,3.5-18.375
									s1.5,14.625,2.125,21.875S95.83,455.206,95.747,455.497z"/>
								<path style="fill:#1C192C;" d="M95.163,456.539c0,0-5.625-2.625-9-11.5s-2.875-14.375-1.625-14.625s9.5,20.125,11,22.25
									S95.163,456.539,95.163,456.539z"/>
								<path style="fill:#1C192C;" d="M95.338,459.649c0,0-6.178-0.601-12.317-7.844c-6.139-7.243-7.5-12.596-6.405-13.248
									c1.095-0.652,15.662,15.81,17.785,17.314C96.522,457.374,95.338,459.649,95.338,459.649z"/>
								<path style="fill:#1C192C;" d="M94.788,457.81c0,0,6.565-3.646,9.94-12.521s2.875-14.375,1.625-14.625s-9.5,20.125-11,22.25
									S94.788,457.81,94.788,457.81z"/>
								<path style="fill:#1C192C;" d="M95.533,459.649c0,0,6.178-0.601,12.317-7.844c6.139-7.243,7.5-12.596,6.405-13.248
									s-15.662,15.81-17.785,17.314C94.348,457.374,95.533,459.649,95.533,459.649z"/>
							</g>
						</g>
					</g>
				</g>
			</g>
		</g>
		<g>
			<g>
				
					<linearGradient id="SVGID_00000029743011433743224550000004189019027444227737_" gradientUnits="userSpaceOnUse" x1="181.2931" y1="75.1758" x2="173.8047" y2="44.8569">
					<stop  offset="0" style="stop-color:#CCCCCC"/>
					<stop  offset="0.4369" style="stop-color:#DEDEDE;stop-opacity:0.5631"/>
					<stop  offset="1" style="stop-color:#F2F2F2;stop-opacity:0"/>
				</linearGradient>
				<path style="fill:url(#SVGID_00000029743011433743224550000004189019027444227737_);" d="M188.105,67.568
					c-7.403,0-13.405-6.002-13.405-13.405c0-2.613,0.75-5.049,2.043-7.111c-5.99,1.34-10.468,6.684-10.468,13.078
					c0,7.403,6.002,13.405,13.405,13.405c4.791,0,8.991-2.515,11.362-6.294C190.096,67.453,189.114,67.568,188.105,67.568z"/>
				<g>
					<circle style="fill:#F1EFFA;" cx="350.057" cy="56.619" r="0.662"/>
					<circle style="fill:#F1EFFA;" cx="298.741" cy="36.745" r="1.313"/>
					<circle style="fill:#F1EFFA;" cx="395.84" cy="79.05" r="1.313"/>
					<circle style="fill:#F1EFFA;" cx="155.48" cy="120.11" r="1.313"/>
					<circle style="fill:#F1EFFA;" cx="133.711" cy="38.286" r="1.313"/>
					<circle style="fill:#F1EFFA;" cx="44.145" cy="37.332" r="0.662"/>
					<circle style="fill:#F1EFFA;" cx="93.667" cy="25.671" r="0.662"/>
					<circle style="fill:#F1EFFA;" cx="201.338" cy="25" r="0.662"/>
					<circle style="fill:#F1EFFA;" cx="121.074" cy="99.167" r="0.662"/>
					<circle style="fill:#F1EFFA;" cx="199.246" cy="125.224" r="0.662"/>
					<circle style="fill:#F1EFFA;" cx="230.067" cy="53.628" r="0.662"/>
					<circle style="fill:#F1EFFA;" cx="47.354" cy="89.426" r="0.662"/>
					<circle style="fill:#F1EFFA;" cx="94.423" cy="58.742" r="0.662"/>
					<circle style="fill:#F1EFFA;" cx="440.473" cy="95.271" r="0.662"/>
					<circle style="fill:#F1EFFA;" cx="517.969" cy="155.245" r="0.662"/>
					<circle style="fill:#F1EFFA;" cx="456.832" cy="164.012" r="0.662"/>
					<circle style="fill:#F1EFFA;" cx="425.131" cy="41.208" r="0.662"/>
					<circle style="fill:#F1EFFA;" cx="493.806" cy="47.783" r="0.662"/>
					<circle style="fill:#F1EFFA;" cx="337.393" cy="119.38" r="0.662"/>
					<circle style="fill:#F1EFFA;" cx="346.891" cy="154.516" r="0.662"/>
					<circle style="fill:#F1EFFA;" cx="365" cy="215.162" r="0.662"/>
					<circle style="fill:#F1EFFA;" cx="671" cy="235.338" r="0.662"/>
					<circle style="fill:#F1EFFA;" cx="474" cy="229.662" r="0.662"/>
					<circle style="fill:#F1EFFA;" cx="275" cy="237.338" r="0.662"/>
					<circle style="fill:#F1EFFA;" cx="251.333" cy="188.995" r="0.662"/>
					<circle style="fill:#F1EFFA;" cx="194.662" cy="221" r="0.662"/>
					<circle style="fill:#F1EFFA;" cx="23.338" cy="234" r="0.662"/>
					<circle style="fill:#F1EFFA;" cx="100.667" cy="201.671" r="0.662"/>
					<circle style="fill:#F1EFFA;" cx="23.338" cy="182.333" r="0.662"/>
					<ellipse style="fill:#F1EFFA;" cx="251.333" cy="205.005" rx="0.005" ry="3.338"/>
					<circle style="fill:#F1EFFA;" cx="266.596" cy="152.986" r="0.662"/>
					<circle style="fill:#F1EFFA;" cx="130.549" cy="148.603" r="0.662"/>
					<circle style="fill:#F1EFFA;" cx="39.761" cy="153.792" r="0.662"/>
					<circle style="fill:#F1EFFA;" cx="680.215" cy="130.222" r="1.313"/>
					<circle style="fill:#F1EFFA;" cx="658.446" cy="48.397" r="1.313"/>
					<circle style="fill:#F1EFFA;" cx="568.88" cy="47.443" r="0.662"/>
					<circle style="fill:#F1EFFA;" cx="530.667" cy="23" r="0.662"/>
					<circle style="fill:#F1EFFA;" cx="645.809" cy="109.279" r="0.662"/>
					<circle style="fill:#F1EFFA;" cx="723.981" cy="135.336" r="0.662"/>
					<circle style="fill:#F1EFFA;" cx="718.25" cy="72.838" r="0.662"/>
					<circle style="fill:#F1EFFA;" cx="562.839" cy="95.35" r="0.662"/>
					<circle style="fill:#F1EFFA;" cx="619.158" cy="68.853" r="0.662"/>
					<circle style="fill:#F1EFFA;" cx="146.317" cy="182.475" r="0.662"/>
					<circle style="fill:#F1EFFA;" cx="95.001" cy="162.601" r="1.313"/>
					<circle style="fill:#F1EFFA;" cx="188" cy="172.354" r="1.313"/>
					<circle style="fill:#F1EFFA;" cx="307.687" cy="190" r="1.313"/>
					<circle style="fill:#F1EFFA;" cx="49.338" cy="198.333" r="0.662"/>
					<circle style="fill:#F1EFFA;" cx="221.391" cy="167.064" r="0.662"/>
					<circle style="fill:#F1EFFA;" cx="623.662" cy="187" r="0.662"/>
					<circle style="fill:#F1EFFA;" cx="586" cy="190.75" r="1.313"/>
					<circle style="fill:#F1EFFA;" cx="676" cy="193.687" r="1.313"/>
					<circle style="fill:#F1EFFA;" cx="714.079" cy="225.652" r="0.662"/>
					<circle style="fill:#F1EFFA;" cx="713.667" cy="174.667" r="0.662"/>
					<circle style="fill:#F1EFFA;" cx="621.995" cy="216.333" r="0.662"/>
					<circle style="fill:#F1EFFA;" cx="515" cy="200.338" r="0.662"/>
					<circle style="fill:#F1EFFA;" cx="402" cy="172.662" r="0.662"/>
					<circle style="fill:#F1EFFA;" cx="445.338" cy="203" r="0.662"/>
					<circle style="fill:#F1EFFA;" cx="655.284" cy="158.714" r="0.662"/>
					<circle style="fill:#F1EFFA;" cx="564.496" cy="163.903" r="0.662"/>
				</g>
				<g>
					
						<linearGradient id="SVGID_00000010994461363147367970000012277611156453880980_" gradientUnits="userSpaceOnUse" x1="276.9778" y1="92.5618" x2="290.2414" y2="79.1838">
						<stop  offset="0" style="stop-color:#CCCCCC"/>
						<stop  offset="0.4369" style="stop-color:#DEDEDE;stop-opacity:0.5631"/>
						<stop  offset="1" style="stop-color:#F2F2F2;stop-opacity:0"/>
					</linearGradient>
					<path style="fill:url(#SVGID_00000010994461363147367970000012277611156453880980_);" d="M290.997,78.833
						c0,0-12.218,10.247-12.997,11.167c-0.839,0.991-0.648,2.63,1.334,1.486C281.316,90.343,290.997,78.833,290.997,78.833z"/>
					
						<linearGradient id="SVGID_00000156561684223904679690000015446850712679026563_" gradientUnits="userSpaceOnUse" x1="382.5177" y1="141.7362" x2="403.7044" y2="120.3668">
						<stop  offset="0" style="stop-color:#CCCCCC"/>
						<stop  offset="0.4369" style="stop-color:#DEDEDE;stop-opacity:0.5631"/>
						<stop  offset="1" style="stop-color:#F2F2F2;stop-opacity:0"/>
					</linearGradient>
					<path style="fill:url(#SVGID_00000156561684223904679690000015446850712679026563_);" d="M404.911,119.806
						c0,0-19.517,16.369-20.761,17.838c-1.339,1.583-1.035,4.201,2.131,2.374C389.447,138.192,404.911,119.806,404.911,119.806z"/>
					
						<linearGradient id="SVGID_00000043424767447808990810000000821463657505224873_" gradientUnits="userSpaceOnUse" x1="499.4402" y1="109.7293" x2="512.7027" y2="96.3524">
						<stop  offset="0" style="stop-color:#CCCCCC"/>
						<stop  offset="0.4369" style="stop-color:#DEDEDE;stop-opacity:0.5631"/>
						<stop  offset="1" style="stop-color:#F2F2F2;stop-opacity:0"/>
					</linearGradient>
					<path style="fill:url(#SVGID_00000043424767447808990810000000821463657505224873_);" d="M513.458,96.001
						c0,0-12.217,10.246-12.996,11.166c-0.838,0.991-0.648,2.63,1.334,1.486C503.778,107.511,513.458,96.001,513.458,96.001z"/>
					
						<linearGradient id="SVGID_00000109731433363423269390000002816801652839601585_" gradientUnits="userSpaceOnUse" x1="72.7528" y1="135.8916" x2="93.9396" y2="114.5222">
						<stop  offset="0" style="stop-color:#CCCCCC"/>
						<stop  offset="0.4369" style="stop-color:#DEDEDE;stop-opacity:0.5631"/>
						<stop  offset="1" style="stop-color:#F2F2F2;stop-opacity:0"/>
					</linearGradient>
					<path style="fill:url(#SVGID_00000109731433363423269390000002816801652839601585_);" d="M95.146,113.961
						c0,0-19.517,16.369-20.761,17.838c-1.339,1.583-1.035,4.201,2.131,2.374S95.146,113.961,95.146,113.961z"/>
					
						<linearGradient id="SVGID_00000031907324499713068810000012715914945883757221_" gradientUnits="userSpaceOnUse" x1="604.7368" y1="138.904" x2="619.0652" y2="124.4521">
						<stop  offset="0" style="stop-color:#CCCCCC"/>
						<stop  offset="0.4369" style="stop-color:#DEDEDE;stop-opacity:0.5631"/>
						<stop  offset="1" style="stop-color:#F2F2F2;stop-opacity:0"/>
					</linearGradient>
					<path style="fill:url(#SVGID_00000031907324499713068810000012715914945883757221_);" d="M619.881,124.073
						c0,0-13.199,11.07-14.04,12.064c-0.906,1.071-0.7,2.841,1.441,1.606C609.423,136.507,619.881,124.073,619.881,124.073z"/>
				</g>
			</g>
			<g>
				<path style="opacity:0.02;fill:#FFFFFF;" d="M558.997,0.524c0,0-2,11.969-131,14.051s-102,15.091-45,16.653
					c57,1.561,125-5.204,128,10.928s-101,4.684-172,8.326c-71,3.643-95,15.091-68,20.295c27,5.204,173,1.041,189,9.888
					s-28,0-67,4.163s-19,11.449,18,15.091c37,3.643,59,16.132-2,18.734s-84,1.041-70,12.489c14,11.449,107,2.082,157,7.286
					s3,12.489-31,12.489s-52,4.684-41,9.367c11,4.684,137,5.252,170,4.212c33-1.041,118-0.048,111-6.814s-49-4.163-63-5.724
					s63-6.765,73-15.091s-80-4.684-111-9.888c-31-5.204,68-12.489,76-22.377s-33,1.561-69-2.602s-32-22.897,40-24.979
					s80.333-14.745,77.667-21.683c-2.667-6.939-86.667,1.041-108,1.041c-21.333,0,22.667-20.469,68-19.428
					c45.333,1.041,63.232-32.599,59.227-36.943L558.997,0.524z"/>
				<path style="opacity:0.02;fill:#FFFFFF;" d="M0,43.424c0,0,148.997-1.827,170.997,2.017s19,17.297-49,15.375
					s-27,11.531-6,13.453s65-5.766,79,2.883s-20,11.531-65,12.492c-45,0.961-86,5.766-80,15.375s151-3.844,172,2.883
					c21,6.727,25,17.297-22,18.258c-47,0.961-92-5.766-94,0.961s31,11.531,78,12.492s46,20.18,0,23.062s-134,4.805-153,2.883
					c-19-1.922-15-16.336,9-16.336s30.5-3.844,25.5-11.531s-41-5.766-52.5-12.492c-11.5-6.727-9-33.152,8-36.996
					s-21-12.372-21-12.372L0,43.424z"/>
			</g>
		</g>
	</g>
</g>
</svg>
